<svg xmlns="http://www.w3.org/2000/svg" viewBox="0 0 1600 900" width="1600" height="900" role="img">
  <defs>
    <linearGradient id="base" x1="0" y1="0" x2="1" y2="1">
      <stop offset="0" stop-color="#070b16"/>
      <stop offset="0.55" stop-color="#0a0f1f"/>
      <stop offset="1" stop-color="#0b1226"/>
    </linearGradient>
    <radialGradient id="vignette" cx="50%" cy="34%" r="75%">
      <stop offset="0" stop-color="#000000" stop-opacity="0"/>
      <stop offset="1" stop-color="#02040a" stop-opacity="0.65"/>
    </radialGradient>
    <pattern id="grid" width="48" height="48" patternUnits="userSpaceOnUse">
      <path d="M48 0H0V48" fill="none" stroke="#ffffff" stroke-opacity="0.045" stroke-width="1"/>
    </pattern>
    <radialGradient id="gridFade" cx="50%" cy="40%" r="60%">
      <stop offset="0" stop-color="#fff" stop-opacity="1"/>
      <stop offset="0.7" stop-color="#fff" stop-opacity="0.25"/>
      <stop offset="1" stop-color="#fff" stop-opacity="0"/>
    </radialGradient>
    <mask id="gridMask"><rect width="1600" height="900" fill="url(#gridFade)"/></mask>
    <filter id="soft" x="-40%" y="-40%" width="180%" height="180%">
      <feGaussianBlur stdDeviation="22"/>
    </filter>
    <filter id="softer" x="-60%" y="-60%" width="220%" height="220%">
      <feGaussianBlur stdDeviation="55"/>
    </filter>
    
    <linearGradient id="edge2" x1="0" y1="0" x2="1" y2="1">
      <stop offset="0" stop-color="#6366f1"/>
      <stop offset="1" stop-color="#a855f7"/>
    </linearGradient>
    <radialGradient id="heat" cx="50%" cy="50%" r="50%">
      <stop offset="0" stop-color="#f87171" stop-opacity="0.85"/>
      <stop offset="0.4" stop-color="#fb923c" stop-opacity="0.55"/>
      <stop offset="0.75" stop-color="#f59e0b" stop-opacity="0.25"/>
      <stop offset="1" stop-color="#f59e0b" stop-opacity="0"/>
    </radialGradient>
    <radialGradient id="glow2" cx="50%" cy="50%" r="50%">
      <stop offset="0" stop-color="#a855f7" stop-opacity="0.38"/>
      <stop offset="1" stop-color="#a855f7" stop-opacity="0"/>
    </radialGradient>
    
  </defs>
  <rect width="1600" height="900" fill="url(#base)"/>
  <rect width="1600" height="900" fill="url(#grid)" mask="url(#gridMask)"/>
<circle cx="1330" cy="170" r="250" fill="url(#glow2)" filter="url(#softer)"/><circle cx="300" cy="780" r="300" fill="#6366f1" fill-opacity="0.16" filter="url(#softer)"/><path d="M1114.9 460.0 Q1114.9 460.0 1108.4 494.7 Q1102.0 529.5 1082.5 560.9 Q1063.0 592.4 1036.0 620.7 Q1009.1 649.0 968.8 664.8 Q928.6 680.6 883.8 676.8 Q839.1 673.0 801.4 665.5 Q763.7 658.0 722.7 660.4 Q681.8 662.8 632.3 659.5 Q582.8 656.3 547.9 630.4 Q513.1 604.5 507.6 566.5 Q502.1 528.5 508.5 494.3 Q514.9 460.0 520.6 428.5 Q526.3 397.0 542.2 367.7 Q558.2 338.3 587.2 316.0 Q616.2 293.8 647.8 273.4 Q679.3 253.0 716.5 230.4 Q753.7 207.8 801.4 200.3 Q849.1 192.7 890.1 214.0 Q931.0 235.2 953.4 268.2 Q975.7 301.1 996.8 325.7 Q1017.8 350.3 1047.8 373.2 Q1077.8 396.1 1096.3 428.1 Z" fill="#6366f1" fill-opacity="0.06" stroke="url(#edge2)" stroke-width="2.5" stroke-opacity="0.6"/><ellipse cx="920.0" cy="420.0" rx="170" ry="140" fill="url(#heat)" filter="url(#soft)"/><line x1="694.3" y1="295.9" x2="718.5" y2="282.7" stroke="url(#edge2)" stroke-opacity="0.45" stroke-width="1.4"/><line x1="694.3" y1="295.9" x2="704.0" y2="249.7" stroke="url(#edge2)" stroke-opacity="0.45" stroke-width="1.4"/><line x1="694.3" y1="295.9" x2="705.6" y2="349.4" stroke="url(#edge2)" stroke-opacity="0.45" stroke-width="1.4"/><line x1="890.6" y1="259.0" x2="905.7" y2="250.4" stroke="url(#edge2)" stroke-opacity="0.45" stroke-width="1.4"/><line x1="890.6" y1="259.0" x2="868.4" y2="294.8" stroke="url(#edge2)" stroke-opacity="0.45" stroke-width="1.4"/><line x1="890.6" y1="259.0" x2="828.6" y2="254.5" stroke="url(#edge2)" stroke-opacity="0.45" stroke-width="1.4"/><line x1="821.5" y1="396.9" x2="846.3" y2="411.4" stroke="url(#edge2)" stroke-opacity="0.45" stroke-width="1.4"/><line x1="821.5" y1="396.9" x2="847.9" y2="439.4" stroke="url(#edge2)" stroke-opacity="0.45" stroke-width="1.4"/><line x1="821.5" y1="396.9" x2="853.5" y2="348.5" stroke="url(#edge2)" stroke-opacity="0.45" stroke-width="1.4"/><line x1="534.8" y1="463.5" x2="513.5" y2="442.0" stroke="url(#edge2)" stroke-opacity="0.45" stroke-width="1.4"/><line x1="534.8" y1="463.5" x2="548.3" y2="436.1" stroke="url(#edge2)" stroke-opacity="0.45" stroke-width="1.4"/><line x1="534.8" y1="463.5" x2="522.5" y2="428.8" stroke="url(#edge2)" stroke-opacity="0.45" stroke-width="1.4"/><line x1="522.5" y1="428.8" x2="513.5" y2="442.0" stroke="url(#edge2)" stroke-opacity="0.45" stroke-width="1.4"/><line x1="522.5" y1="428.8" x2="502.5" y2="421.9" stroke="url(#edge2)" stroke-opacity="0.45" stroke-width="1.4"/><line x1="522.5" y1="428.8" x2="548.3" y2="436.1" stroke="url(#edge2)" stroke-opacity="0.45" stroke-width="1.4"/><line x1="754.7" y1="613.6" x2="734.6" y2="634.6" stroke="url(#edge2)" stroke-opacity="0.45" stroke-width="1.4"/><line x1="754.7" y1="613.6" x2="750.9" y2="580.9" stroke="url(#edge2)" stroke-opacity="0.45" stroke-width="1.4"/><line x1="754.7" y1="613.6" x2="715.3" y2="640.6" stroke="url(#edge2)" stroke-opacity="0.45" stroke-width="1.4"/><line x1="574.3" y1="329.9" x2="577.6" y2="341.4" stroke="url(#edge2)" stroke-opacity="0.45" stroke-width="1.4"/><line x1="574.3" y1="329.9" x2="605.7" y2="334.0" stroke="url(#edge2)" stroke-opacity="0.45" stroke-width="1.4"/><line x1="574.3" y1="329.9" x2="600.8" y2="280.0" stroke="url(#edge2)" stroke-opacity="0.45" stroke-width="1.4"/><line x1="876.5" y1="670.4" x2="829.7" y2="640.2" stroke="url(#edge2)" stroke-opacity="0.45" stroke-width="1.4"/><line x1="876.5" y1="670.4" x2="815.1" y2="636.3" stroke="url(#edge2)" stroke-opacity="0.45" stroke-width="1.4"/><line x1="876.5" y1="670.4" x2="991.6" y2="631.1" stroke="url(#edge2)" stroke-opacity="0.45" stroke-width="1.4"/><line x1="846.3" y1="411.4" x2="847.9" y2="439.4" stroke="url(#edge2)" stroke-opacity="0.45" stroke-width="1.4"/><line x1="846.3" y1="411.4" x2="883.3" y2="400.0" stroke="url(#edge2)" stroke-opacity="0.45" stroke-width="1.4"/><line x1="1015.1" y1="361.1" x2="1025.3" y2="372.5" stroke="url(#edge2)" stroke-opacity="0.45" stroke-width="1.4"/><line x1="1015.1" y1="361.1" x2="993.2" y2="358.8" stroke="url(#edge2)" stroke-opacity="0.45" stroke-width="1.4"/><line x1="1015.1" y1="361.1" x2="997.3" y2="300.9" stroke="url(#edge2)" stroke-opacity="0.45" stroke-width="1.4"/><line x1="685.1" y1="608.6" x2="715.3" y2="640.6" stroke="url(#edge2)" stroke-opacity="0.45" stroke-width="1.4"/><line x1="685.1" y1="608.6" x2="734.6" y2="634.6" stroke="url(#edge2)" stroke-opacity="0.45" stroke-width="1.4"/><line x1="608.4" y1="498.4" x2="646.5" y2="495.0" stroke="url(#edge2)" stroke-opacity="0.45" stroke-width="1.4"/><line x1="608.4" y1="498.4" x2="591.2" y2="454.8" stroke="url(#edge2)" stroke-opacity="0.45" stroke-width="1.4"/><line x1="608.4" y1="498.4" x2="562.1" y2="523.1" stroke="url(#edge2)" stroke-opacity="0.45" stroke-width="1.4"/><line x1="883.3" y1="400.0" x2="908.2" y2="426.0" stroke="url(#edge2)" stroke-opacity="0.45" stroke-width="1.4"/><line x1="883.3" y1="400.0" x2="847.9" y2="439.4" stroke="url(#edge2)" stroke-opacity="0.45" stroke-width="1.4"/><line x1="828.6" y1="254.5" x2="825.9" y2="237.7" stroke="url(#edge2)" stroke-opacity="0.45" stroke-width="1.4"/><line x1="828.6" y1="254.5" x2="817.0" y2="293.9" stroke="url(#edge2)" stroke-opacity="0.45" stroke-width="1.4"/><line x1="828.6" y1="254.5" x2="868.4" y2="294.8" stroke="url(#edge2)" stroke-opacity="0.45" stroke-width="1.4"/><line x1="908.2" y1="426.0" x2="847.9" y2="439.4" stroke="url(#edge2)" stroke-opacity="0.45" stroke-width="1.4"/><line x1="688.5" y1="500.2" x2="721.6" y2="491.2" stroke="url(#edge2)" stroke-opacity="0.45" stroke-width="1.4"/><line x1="688.5" y1="500.2" x2="646.5" y2="495.0" stroke="url(#edge2)" stroke-opacity="0.45" stroke-width="1.4"/><line x1="688.5" y1="500.2" x2="731.5" y2="539.3" stroke="url(#edge2)" stroke-opacity="0.45" stroke-width="1.4"/><line x1="771.9" y1="365.9" x2="735.4" y2="412.5" stroke="url(#edge2)" stroke-opacity="0.45" stroke-width="1.4"/><line x1="771.9" y1="365.9" x2="705.6" y2="349.4" stroke="url(#edge2)" stroke-opacity="0.45" stroke-width="1.4"/><line x1="976.6" y1="553.5" x2="958.7" y2="494.3" stroke="url(#edge2)" stroke-opacity="0.45" stroke-width="1.4"/><line x1="976.6" y1="553.5" x2="1024.7" y2="600.0" stroke="url(#edge2)" stroke-opacity="0.45" stroke-width="1.4"/><line x1="976.6" y1="553.5" x2="1039.7" y2="591.6" stroke="url(#edge2)" stroke-opacity="0.45" stroke-width="1.4"/><line x1="646.5" y1="495.0" x2="640.0" y2="452.9" stroke="url(#edge2)" stroke-opacity="0.45" stroke-width="1.4"/><line x1="815.1" y1="636.3" x2="829.7" y2="640.2" stroke="url(#edge2)" stroke-opacity="0.45" stroke-width="1.4"/><line x1="937.7" y1="360.3" x2="993.2" y2="358.8" stroke="url(#edge2)" stroke-opacity="0.45" stroke-width="1.4"/><line x1="750.9" y1="580.9" x2="731.5" y2="539.3" stroke="url(#edge2)" stroke-opacity="0.45" stroke-width="1.4"/><line x1="750.9" y1="580.9" x2="784.5" y2="537.2" stroke="url(#edge2)" stroke-opacity="0.45" stroke-width="1.4"/><line x1="591.2" y1="454.8" x2="548.3" y2="436.1" stroke="url(#edge2)" stroke-opacity="0.45" stroke-width="1.4"/><line x1="591.2" y1="454.8" x2="640.0" y2="452.9" stroke="url(#edge2)" stroke-opacity="0.45" stroke-width="1.4"/><line x1="523.5" y1="539.1" x2="536.4" y2="554.7" stroke="url(#edge2)" stroke-opacity="0.45" stroke-width="1.4"/><line x1="523.5" y1="539.1" x2="562.1" y2="523.1" stroke="url(#edge2)" stroke-opacity="0.45" stroke-width="1.4"/><line x1="958.7" y1="494.3" x2="917.2" y2="504.4" stroke="url(#edge2)" stroke-opacity="0.45" stroke-width="1.4"/><line x1="1025.3" y1="372.5" x2="993.2" y2="358.8" stroke="url(#edge2)" stroke-opacity="0.45" stroke-width="1.4"/><line x1="1025.3" y1="372.5" x2="997.3" y2="300.9" stroke="url(#edge2)" stroke-opacity="0.45" stroke-width="1.4"/><line x1="784.5" y1="537.2" x2="809.3" y2="515.3" stroke="url(#edge2)" stroke-opacity="0.45" stroke-width="1.4"/><line x1="784.5" y1="537.2" x2="731.5" y2="539.3" stroke="url(#edge2)" stroke-opacity="0.45" stroke-width="1.4"/><line x1="536.4" y1="554.7" x2="562.1" y2="523.1" stroke="url(#edge2)" stroke-opacity="0.45" stroke-width="1.4"/><line x1="731.5" y1="539.3" x2="721.6" y2="491.2" stroke="url(#edge2)" stroke-opacity="0.45" stroke-width="1.4"/><line x1="513.5" y1="442.0" x2="502.5" y2="421.9" stroke="url(#edge2)" stroke-opacity="0.45" stroke-width="1.4"/><line x1="600.8" y1="280.0" x2="625.3" y2="301.3" stroke="url(#edge2)" stroke-opacity="0.45" stroke-width="1.4"/><line x1="600.8" y1="280.0" x2="605.7" y2="334.0" stroke="url(#edge2)" stroke-opacity="0.45" stroke-width="1.4"/><line x1="577.6" y1="341.4" x2="605.7" y2="334.0" stroke="url(#edge2)" stroke-opacity="0.45" stroke-width="1.4"/><line x1="577.6" y1="341.4" x2="560.9" y2="395.9" stroke="url(#edge2)" stroke-opacity="0.45" stroke-width="1.4"/><line x1="734.6" y1="634.6" x2="715.3" y2="640.6" stroke="url(#edge2)" stroke-opacity="0.45" stroke-width="1.4"/><line x1="991.6" y1="631.1" x2="1024.7" y2="600.0" stroke="url(#edge2)" stroke-opacity="0.45" stroke-width="1.4"/><line x1="991.6" y1="631.1" x2="1039.7" y2="591.6" stroke="url(#edge2)" stroke-opacity="0.45" stroke-width="1.4"/><line x1="667.1" y1="420.2" x2="651.4" y2="388.3" stroke="url(#edge2)" stroke-opacity="0.45" stroke-width="1.4"/><line x1="667.1" y1="420.2" x2="640.0" y2="452.9" stroke="url(#edge2)" stroke-opacity="0.45" stroke-width="1.4"/><line x1="667.1" y1="420.2" x2="735.4" y2="412.5" stroke="url(#edge2)" stroke-opacity="0.45" stroke-width="1.4"/><line x1="605.7" y1="334.0" x2="625.3" y2="301.3" stroke="url(#edge2)" stroke-opacity="0.45" stroke-width="1.4"/><line x1="853.5" y1="348.5" x2="868.4" y2="294.8" stroke="url(#edge2)" stroke-opacity="0.45" stroke-width="1.4"/><line x1="721.6" y1="491.2" x2="779.6" y2="452.4" stroke="url(#edge2)" stroke-opacity="0.45" stroke-width="1.4"/><line x1="1071.9" y1="549.5" x2="1039.7" y2="591.6" stroke="url(#edge2)" stroke-opacity="0.45" stroke-width="1.4"/><line x1="1071.9" y1="549.5" x2="1024.7" y2="600.0" stroke="url(#edge2)" stroke-opacity="0.45" stroke-width="1.4"/><line x1="809.3" y1="515.3" x2="779.6" y2="452.4" stroke="url(#edge2)" stroke-opacity="0.45" stroke-width="1.4"/><line x1="905.7" y1="250.4" x2="868.4" y2="294.8" stroke="url(#edge2)" stroke-opacity="0.45" stroke-width="1.4"/><line x1="1039.7" y1="591.6" x2="1024.7" y2="600.0" stroke="url(#edge2)" stroke-opacity="0.45" stroke-width="1.4"/><line x1="735.4" y1="412.5" x2="779.6" y2="452.4" stroke="url(#edge2)" stroke-opacity="0.45" stroke-width="1.4"/><line x1="704.0" y1="249.7" x2="718.5" y2="282.7" stroke="url(#edge2)" stroke-opacity="0.45" stroke-width="1.4"/><line x1="868.4" y1="294.8" x2="817.0" y2="293.9" stroke="url(#edge2)" stroke-opacity="0.45" stroke-width="1.4"/><line x1="651.4" y1="388.3" x2="705.6" y2="349.4" stroke="url(#edge2)" stroke-opacity="0.45" stroke-width="1.4"/><line x1="718.5" y1="282.7" x2="705.6" y2="349.4" stroke="url(#edge2)" stroke-opacity="0.45" stroke-width="1.4"/><line x1="817.0" y1="293.9" x2="825.9" y2="237.7" stroke="url(#edge2)" stroke-opacity="0.45" stroke-width="1.4"/><circle cx="694.3" cy="295.9" r="3.2" fill="#38bdf8" fill-opacity="0.8"/><circle cx="890.6" cy="259.0" r="3.2" fill="#38bdf8" fill-opacity="0.8"/><circle cx="821.5" cy="396.9" r="4.2" fill="#fb923c" fill-opacity="0.95"/><circle cx="534.8" cy="463.5" r="3.2" fill="#38bdf8" fill-opacity="0.8"/><circle cx="522.5" cy="428.8" r="3.2" fill="#38bdf8" fill-opacity="0.8"/><circle cx="754.7" cy="613.6" r="3.2" fill="#38bdf8" fill-opacity="0.8"/><circle cx="574.3" cy="329.9" r="3.2" fill="#38bdf8" fill-opacity="0.8"/><circle cx="876.5" cy="670.4" r="3.2" fill="#38bdf8" fill-opacity="0.8"/><circle cx="846.3" cy="411.4" r="4.2" fill="#fb923c" fill-opacity="0.95"/><circle cx="1015.1" cy="361.1" r="4.2" fill="#fb923c" fill-opacity="0.95"/><circle cx="685.1" cy="608.6" r="3.2" fill="#38bdf8" fill-opacity="0.8"/><circle cx="608.4" cy="498.4" r="3.2" fill="#38bdf8" fill-opacity="0.8"/><circle cx="883.3" cy="400.0" r="4.2" fill="#fb923c" fill-opacity="0.95"/><circle cx="828.6" cy="254.5" r="3.2" fill="#38bdf8" fill-opacity="0.8"/><circle cx="908.2" cy="426.0" r="4.2" fill="#fb923c" fill-opacity="0.95"/><circle cx="688.5" cy="500.2" r="3.2" fill="#38bdf8" fill-opacity="0.8"/><circle cx="771.9" cy="365.9" r="3.2" fill="#38bdf8" fill-opacity="0.8"/><circle cx="976.6" cy="553.5" r="4.2" fill="#fb923c" fill-opacity="0.95"/><circle cx="646.5" cy="495.0" r="3.2" fill="#38bdf8" fill-opacity="0.8"/><circle cx="815.1" cy="636.3" r="3.2" fill="#38bdf8" fill-opacity="0.8"/><circle cx="937.7" cy="360.3" r="4.2" fill="#fb923c" fill-opacity="0.95"/><circle cx="750.9" cy="580.9" r="3.2" fill="#38bdf8" fill-opacity="0.8"/><circle cx="591.2" cy="454.8" r="3.2" fill="#38bdf8" fill-opacity="0.8"/><circle cx="523.5" cy="539.1" r="3.2" fill="#38bdf8" fill-opacity="0.8"/><circle cx="958.7" cy="494.3" r="4.2" fill="#fb923c" fill-opacity="0.95"/><circle cx="1025.3" cy="372.5" r="4.2" fill="#fb923c" fill-opacity="0.95"/><circle cx="917.2" cy="504.4" r="4.2" fill="#fb923c" fill-opacity="0.95"/><circle cx="847.9" cy="439.4" r="4.2" fill="#fb923c" fill-opacity="0.95"/><circle cx="784.5" cy="537.2" r="3.2" fill="#38bdf8" fill-opacity="0.8"/><circle cx="536.4" cy="554.7" r="3.2" fill="#38bdf8" fill-opacity="0.8"/><circle cx="993.2" cy="358.8" r="4.2" fill="#fb923c" fill-opacity="0.95"/><circle cx="731.5" cy="539.3" r="3.2" fill="#38bdf8" fill-opacity="0.8"/><circle cx="513.5" cy="442.0" r="3.2" fill="#38bdf8" fill-opacity="0.8"/><circle cx="600.8" cy="280.0" r="3.2" fill="#38bdf8" fill-opacity="0.8"/><circle cx="577.6" cy="341.4" r="3.2" fill="#38bdf8" fill-opacity="0.8"/><circle cx="734.6" cy="634.6" r="3.2" fill="#38bdf8" fill-opacity="0.8"/><circle cx="548.3" cy="436.1" r="3.2" fill="#38bdf8" fill-opacity="0.8"/><circle cx="829.7" cy="640.2" r="3.2" fill="#38bdf8" fill-opacity="0.8"/><circle cx="991.6" cy="631.1" r="3.2" fill="#38bdf8" fill-opacity="0.8"/><circle cx="667.1" cy="420.2" r="3.2" fill="#38bdf8" fill-opacity="0.8"/><circle cx="715.3" cy="640.6" r="3.2" fill="#38bdf8" fill-opacity="0.8"/><circle cx="605.7" cy="334.0" r="3.2" fill="#38bdf8" fill-opacity="0.8"/><circle cx="640.0" cy="452.9" r="3.2" fill="#38bdf8" fill-opacity="0.8"/><circle cx="853.5" cy="348.5" r="4.2" fill="#fb923c" fill-opacity="0.95"/><circle cx="502.5" cy="421.9" r="3.2" fill="#38bdf8" fill-opacity="0.8"/><circle cx="721.6" cy="491.2" r="3.2" fill="#38bdf8" fill-opacity="0.8"/><circle cx="1071.9" cy="549.5" r="3.2" fill="#38bdf8" fill-opacity="0.8"/><circle cx="809.3" cy="515.3" r="4.2" fill="#fb923c" fill-opacity="0.95"/><circle cx="905.7" cy="250.4" r="3.2" fill="#38bdf8" fill-opacity="0.8"/><circle cx="1039.7" cy="591.6" r="3.2" fill="#38bdf8" fill-opacity="0.8"/><circle cx="1024.7" cy="600.0" r="3.2" fill="#38bdf8" fill-opacity="0.8"/><circle cx="735.4" cy="412.5" r="3.2" fill="#38bdf8" fill-opacity="0.8"/><circle cx="562.1" cy="523.1" r="3.2" fill="#38bdf8" fill-opacity="0.8"/><circle cx="625.3" cy="301.3" r="3.2" fill="#38bdf8" fill-opacity="0.8"/><circle cx="704.0" cy="249.7" r="3.2" fill="#38bdf8" fill-opacity="0.8"/><circle cx="560.9" cy="395.9" r="3.2" fill="#38bdf8" fill-opacity="0.8"/><circle cx="868.4" cy="294.8" r="4.2" fill="#fb923c" fill-opacity="0.95"/><circle cx="651.4" cy="388.3" r="3.2" fill="#38bdf8" fill-opacity="0.8"/><circle cx="718.5" cy="282.7" r="3.2" fill="#38bdf8" fill-opacity="0.8"/><circle cx="779.6" cy="452.4" r="4.2" fill="#fb923c" fill-opacity="0.95"/><circle cx="705.6" cy="349.4" r="3.2" fill="#38bdf8" fill-opacity="0.8"/><circle cx="997.3" cy="300.9" r="4.2" fill="#fb923c" fill-opacity="0.95"/><circle cx="817.0" cy="293.9" r="3.2" fill="#38bdf8" fill-opacity="0.8"/><circle cx="825.9" cy="237.7" r="3.2" fill="#38bdf8" fill-opacity="0.8"/>  <rect width="1600" height="900" fill="url(#vignette)"/>
  <rect x="0" y="0" width="1600" height="2" fill="#ffffff" fill-opacity="0.05"/>
</svg>
